# xmcd CD database file
#
# Track frame offsets:
#	150
#	24075
#	43557
#	61704
#	86197
#	103059
#	117745
#	135418
#	161941
#	186023
#	206851
#	225475
#
# Disc length: 3401 seconds
#
# Revision: 0
# Processed by: cddbd v1.5.1PL0 Copyright (c) Steve Scherf et al.
# Submitted via: CDex 1.50beta8
#
DISCID=a00d470c
DTITLE=Ryan Farish - From The Sky
DYEAR=2005
DGENRE=New Age
TTITLE0=01.Promise
TTITLE1=02.Living Water
TTITLE2=03.Joy
TTITLE3=04.Pacific Wind
TTITLE4=05.Home Again
TTITLE5=06.Walk With You
TTITLE6=07.Legacy
TTITLE7=08.Cry No More
TTITLE8=09.Miles Away
TTITLE9=10.Shine
TTITLE10=11.From the Sky
TTITLE11=12.Rejoice!
EXTD=YEAR: 2005
EXTT0=
EXTT1=
EXTT2=
EXTT3=
EXTT4=
EXTT5=
EXTT6=
EXTT7=
EXTT8=
EXTT9=
EXTT10=
EXTT11=
PLAYORDER=
